<svg width="120" height="120" viewBox="0 0 120 120" fill="none" xmlns="http://www.w3.org/2000/svg">
  <defs>
    <!-- Background gradient -->
    <linearGradient id="bgGrad" x1="0%" y1="0%" x2="100%" y2="100%">
      <stop offset="0%" style="stop-color:#1a1a1a"/>
      <stop offset="100%" style="stop-color:#0a0a0a"/>
    </linearGradient>
    
    <!-- Verde VIBRANTE -->
    <linearGradient id="greenGrad" x1="0%" y1="0%" x2="100%" y2="100%">
      <stop offset="0%" style="stop-color:#00E676"/>
      <stop offset="50%" style="stop-color:#00C853"/>
      <stop offset="100%" style="stop-color:#00A843"/>
    </linearGradient>
    
    <!-- Accent amarelo/laranja -->
    <linearGradient id="accentGrad" x1="0%" y1="0%" x2="100%" y2="0%">
      <stop offset="0%" style="stop-color:#FFD600"/>
      <stop offset="100%" style="stop-color:#FF9100"/>
    </linearGradient>
    
    <!-- Glow -->
    <filter id="glow" x="-50%" y="-50%" width="200%" height="200%">
      <feGaussianBlur stdDeviation="4" result="coloredBlur"/>
      <feMerge>
        <feMergeNode in="coloredBlur"/>
        <feMergeNode in="SourceGraphic"/>
      </feMerge>
    </filter>
    
    <filter id="softGlow" x="-50%" y="-50%" width="200%" height="200%">
      <feGaussianBlur stdDeviation="2" result="coloredBlur"/>
      <feMerge>
        <feMergeNode in="coloredBlur"/>
        <feMergeNode in="SourceGraphic"/>
      </feMerge>
    </filter>
    
    <!-- Hex pattern -->
    <pattern id="hexGrid" patternUnits="userSpaceOnUse" width="10" height="8.66">
      <path d="M5 0L10 2.5L10 7.5L5 10L0 7.5L0 2.5Z" fill="none" stroke="#00E676" stroke-width="0.4" opacity="0.5"/>
    </pattern>
  </defs>
  
  <!-- Background -->
  <rect width="120" height="120" rx="26" fill="url(#bgGrad)"/>
  
  <!-- Outer tech ring -->
  <circle cx="60" cy="60" r="52" fill="none" stroke="url(#accentGrad)" stroke-width="1.2" opacity="0.25" stroke-dasharray="8,4"/>
  <circle cx="60" cy="60" r="48" fill="none" stroke="#00C853" stroke-width="0.5" opacity="0.4"/>
  
  <!-- Main ball -->
  <circle cx="60" cy="60" r="42" fill="url(#greenGrad)"/>
  
  <!-- Hex overlay -->
  <circle cx="60" cy="60" r="40" fill="url(#hexGrid)" opacity="0.6"/>
  
  <!-- Futuristic segments -->
  <g filter="url(#softGlow)">
    <!-- Center hex -->
    <path d="M60 30L76 42L76 62L60 74L44 62L44 42Z" fill="#00A843" stroke="#00E676" stroke-width="0.8"/>
    
    <!-- Side segments -->
    <path d="M76 42L94 54L94 72L76 84L76 62Z" fill="#00A843" stroke="#00E676" stroke-width="0.6"/>
    <path d="M44 42L44 62L26 74L26 56L26 54Z" fill="#00A843" stroke="#00E676" stroke-width="0.6"/>
    <path d="M60 74L76 84L70 98L50 98L44 84Z" fill="#00A843" stroke="#00E676" stroke-width="0.6"/>
  </g>
  
  <!-- Circuit lines -->
  <g stroke="#00E676" stroke-width="0.8" opacity="0.6">
    <path d="M60 12L60 30"/>
    <path d="M100 44L108 38"/>
    <path d="M20 44L12 38"/>
    <circle cx="60" cy="12" r="2.5" fill="#00E676"/>
    <circle cx="108" cy="38" r="2" fill="#00E676"/>
    <circle cx="12" cy="38" r="2" fill="#00E676"/>
  </g>
  
  <!-- R Letter - destaque central -->
  <text x="42" y="75" font-family="'Montserrat', Arial Black, sans-serif" font-weight="900" font-size="44" fill="#FFFFFF" filter="url(#glow)">R</text>
  
  <!-- Energy arc -->
  <path d="M16 84C28 56 44 42 60 38" stroke="url(#accentGrad)" stroke-width="4" stroke-linecap="round" fill="none" filter="url(#glow)"/>
  
  <!-- Speed trails -->
  <g stroke="url(#accentGrad)" stroke-width="2.5" stroke-linecap="round">
    <path d="M10 68L22 64"/>
    <path d="M6 80L24 74"/>
    <path d="M14 94L28 86"/>
  </g>
  
  <!-- Tech corners -->
  <g stroke="#00C853" stroke-width="1.5" opacity="0.5">
    <path d="M10 10L10 24M10 10L24 10"/>
    <path d="M110 110L110 96M110 110L96 110"/>
  </g>
</svg>
